# xmcd
#
# Track frame offsets: 
#        150
#        12544
#        26007
#        42282
#        57601
#        70164
#        87958
#        102096
#        114715
#        132115
#
# Disc length: 1910 seconds
#
# Revision: 0
# Processed by: cddbd v1.5.2PL0 Copyright (c) Steve Scherf et al.
# Submitted via: ExactAudioCopy v0.99pb5
#
DISCID=8707740a
DTITLE=Erin McCallum - Common Ground
DYEAR=2010
DGENRE=Blues
TTITLE0=Right Down The Middle
TTITLE1=In Your Dreams
TTITLE2=Miss Informed
TTITLE3=Lost My Found
TTITLE4=I Say Hallelujah
TTITLE5=I Wanna Know
TTITLE6=Don't Call Me Baby
TTITLE7=It Happens
TTITLE8=Touched Me In My Soul
TTITLE9=When It's Over
EXTD=
EXTT0=
EXTT1=
EXTT2=
EXTT3=
EXTT4=
EXTT5=
EXTT6=
EXTT7=
EXTT8=
EXTT9=
PLAYORDER=
